# xmcd
#
# Track frame offsets:
# 150
# 11315
# 23938
# 35859
# 49642
# 63062
# 75603
# 88370
# 98420
# 109344
# 123877
# 140470
# 157336
# 170036
# 187257
# 204595
#
# Disc length: 3029 seconds
#
#
# Revision: 0
# Processed by: cddbd v1.5PL3 Copyright (c) Steve Scherf et al.
# Submitted via: FreeRIP 2.53 
#
DISCID=dc0bd310
DTITLE=Price, Ray - 16 Biggest Hits
DYEAR=1900
DGENRE=
TTITLE0=Crazy Arms
TTITLE1=I've Got A New Heartache
TTITLE2=My Shoes Keep Waling Back To You
TTITLE3=City Lights
TTITLE4=Heartaches By The Number
TTITLE5=The Same Old Me
TTITLE6=One More Time
TTITLE7=Make The World Go Away
TTITLE8=Burning Memories
TTITLE9=The Other Woman
TTITLE10=For The Good Times
TTITLE11=I Won't Mention It Again
TTITLE12=I'd Rather Be Sorry
TTITLE13=She's Got To Be A Saint
TTITLE14=You're The Best Thing That Ever Happened To Me
TTITLE15=Danny Boy
EXTD=
EXTT0=
EXTT1=
EXTT2=
EXTT3=
EXTT4=
EXTT5=
EXTT6=
EXTT7=
EXTT8=
EXTT9=
EXTT10=
EXTT11=
EXTT12=
EXTT13=
EXTT14=
EXTT15=
PLAYORDER=
